<svg xmlns="http://www.w3.org/2000/svg" width="150" height="150"><defs><linearGradient id="a" x1="75" x2="75" y1="0" y2="150" gradientUnits="userSpaceOnUse"><stop offset="0" stop-color="#301abc"/><stop offset="1" stop-color="#190e63"/></linearGradient></defs><rect width="150" height="150" fill="url(#a)" rx="20"/><path fill="#a742ff" d="M89.64 89.54v-29.7c-.03-4.16.5-8.3 1.56-12.3.9-3.34 2.24-6.54 3.97-9.53a37.76 37.76 0 0 1 15.57-14.7 45.93 45.93 0 0 1 14.88-4.65 60.4 60.4 0 0 1 8.28-.56c8.85 0 16.62 1.74 23.3 5.21a37.85 37.85 0 0 1 15.58 14.7 40.63 40.63 0 0 1 5.23 16.2c.2 1.86.3 3.74.3 5.62v29.71c0 8.43-1.85 15.83-5.53 22.2a38.22 38.22 0 0 1-15.57 14.87 45.36 45.36 0 0 1-14.57 4.66c-2.9.43-5.82.64-8.74.63-8.75 0-16.47-1.76-23.16-5.3a38.24 38.24 0 0 1-15.57-14.85 41.02 41.02 0 0 1-5.1-15.34 52.6 52.6 0 0 1-.43-6.87Zm58.95.95V59.5c0-4.85-1.34-8.72-4.03-11.62a13.36 13.36 0 0 0-8.65-4.24 18.5 18.5 0 0 0-2-.1 15.7 15.7 0 0 0-5.04.77c-2.1.7-3.99 1.93-5.49 3.57-2.68 2.9-4.03 6.77-4.03 11.62v31c0 4.85 1.35 8.72 4.03 11.62a13.4 13.4 0 0 0 9.22 4.3 18.19 18.19 0 0 0 6.17-.65 13 13 0 0 0 5.8-3.65c2.68-2.9 4.02-6.77 4.02-11.62Z"/><path fill="#fd3333" d="M30.67 89.54v-29.7c-.03-4.16.5-8.3 1.56-12.3.9-3.34 2.23-6.55 3.97-9.54a37.76 37.76 0 0 1 15.57-14.7 45.93 45.93 0 0 1 14.88-4.65 60.3 60.3 0 0 1 8.28-.56c8.85 0 16.62 1.74 23.31 5.21A37.76 37.76 0 0 1 113.81 38a40.66 40.66 0 0 1 5.23 16.2c.2 1.86.3 3.74.3 5.62v29.71c0 8.43-1.84 15.83-5.53 22.2a38.29 38.29 0 0 1-15.57 14.87 45.36 45.36 0 0 1-14.57 4.66c-2.9.43-5.81.64-8.74.63-8.75 0-16.47-1.76-23.16-5.3a38.15 38.15 0 0 1-15.56-14.85 41.02 41.02 0 0 1-5.1-15.34c-.3-2.27-.44-4.57-.44-6.87v.01Zm58.96.95V59.5c0-4.85-1.35-8.72-4.03-11.62a13.37 13.37 0 0 0-8.66-4.24 18.5 18.5 0 0 0-2-.1c-1.7-.02-3.4.24-5.03.77-2.1.7-4 1.94-5.5 3.57-2.68 2.9-4.02 6.77-4.02 11.62v31c0 4.85 1.34 8.72 4.03 11.62a13.4 13.4 0 0 0 9.22 4.3 18.52 18.52 0 0 0 6.16-.65 13 13 0 0 0 5.8-3.65c2.68-2.9 4.03-6.77 4.03-11.62Z"/><path fill="#1d73ff" d="M-26.2 95.86v-2.2c0-.25.02-.49.07-.73.09-.38.28-.74.56-1.02.42-.42 1-.63 1.74-.63H.67c.24 0 .48.02.72.08.38.09.73.28 1.01.55.43.42.64 1 .64 1.74v.95c0 2.78 1.38 5.26 4.15 7.43l.51.4c2.7 1.96 6.2 3.08 10.46 3.33 1.64.13 3.28.09 4.9-.12 2.2-.3 3.9-.96 5.1-1.98l.32-.3c.6-.56 1.12-1.2 1.55-1.9a6.8 6.8 0 0 0 .48-6.04 5.91 5.91 0 0 0-2.66-2.72 23.4 23.4 0 0 0-1.9-.92 94.3 94.3 0 0 0-9.64-3.35l-4.58-1.26c-4.6-1.38-9.1-3.08-13.46-5.1a73.95 73.95 0 0 1-12.78-7.54 25.68 25.68 0 0 1-10.3-18.19 37.2 37.2 0 0 1-.29-4.73c-.03-3.9.66-7.78 2.05-11.42.85-2.2 1.97-4.28 3.33-6.2A33.51 33.51 0 0 1-7.79 23.57a48.92 48.92 0 0 1 16.86-5.06 60.91 60.91 0 0 1 20.9 1.2c2.94.73 5.8 1.72 8.55 2.97 6.7 3.06 11.96 7.38 15.8 12.96a32.95 32.95 0 0 1 5.77 19.13v1.42c0 .24-.02.48-.07.72a2.1 2.1 0 0 1-.56 1.02c-.42.42-1 .63-1.74.63h-24.5c-.24 0-.48-.02-.7-.08a2.08 2.08 0 0 1-1.04-.55c-.42-.42-.63-1-.63-1.74v-.16c0-2.23-.74-4.4-2.08-6.2a15.55 15.55 0 0 0-2.19-2.4 14.36 14.36 0 0 0-6.3-3.29c-1.6-.4-3.34-.6-5.23-.6-2.43 0-4.49.36-6.18 1.07a9.6 9.6 0 0 0-1.8 1 6.52 6.52 0 0 0-2.93 5.68c0 1.9.71 3.5 2.13 4.82.54.5 1.13.95 1.74 1.34 1.24.82 2.78 1.6 4.64 2.38l.18.08c4.62 1.8 9.3 3.4 14.05 4.81 1.27.43 4.48 1.4 9.6 2.92l1.1.33a34.22 34.22 0 0 1 16.5 10.6 27.05 27.05 0 0 1 6.6 16.87 34.96 34.96 0 0 1-1.22 11.26 28.6 28.6 0 0 1-4.1 8.68 32.76 32.76 0 0 1-11 9.8c-1.31.74-2.65 1.4-4.03 1.98a49.92 49.92 0 0 1-11.84 3.32c-3.5.54-7.05.8-10.6.8-3.87 0-7.72-.3-11.54-.94a50.33 50.33 0 0 1-11.7-3.42 38.38 38.38 0 0 1-9.24-5.62 31.84 31.84 0 0 1-11.53-22.83c-.06-.87-.09-1.74-.09-2.6"/><path fill="#ff80ff" d="M30.68 89.54V65.9l5.82 1.74 1.08.33A34.22 34.22 0 0 1 54.1 78.56a27.04 27.04 0 0 1 6.6 16.88 34.97 34.97 0 0 1-1.23 11.26 28.6 28.6 0 0 1-4.11 8.68 32.8 32.8 0 0 1-8.42 8.23 37.66 37.66 0 0 1-10.73-11.86 41.03 41.03 0 0 1-5.09-15.34 52.7 52.7 0 0 1-.44-6.87Zm83.12-51.52a40.64 40.64 0 0 1 5.24 16.18c.2 1.87.3 3.75.3 5.63v29.7c0 8.44-1.84 15.85-5.53 22.22a37.63 37.63 0 0 1-9.32 10.8 37.7 37.7 0 0 1-9.32-10.8 41.04 41.04 0 0 1-5.1-15.34 51 51 0 0 1-.43-6.87V59.83c-.03-4.15.5-8.29 1.56-12.3.9-3.33 2.23-6.53 3.97-9.51a37.24 37.24 0 0 1 9.32-10.7 37.23 37.23 0 0 1 9.32 10.7Zm-81.57 9.52c.9-3.33 2.23-6.54 3.97-9.53a37.28 37.28 0 0 1 9.73-11c3.26 2.39 6.1 5.3 8.4 8.63a32.9 32.9 0 0 1 5.76 19.13v1.42c0 .24-.02.48-.07.72-.09.4-.28.74-.56 1.02-.42.42-1 .63-1.74.63h-24.5c-.24 0-.48-.02-.71-.08a2.08 2.08 0 0 1-1.03-.55c-.42-.42-.63-1-.63-1.74v-.16l-.01-.48c.23-2.7.7-5.39 1.4-8.02l-.01.01Z"/></svg>