<svg xmlns="http://www.w3.org/2000/svg" width="150" height="150"><defs><linearGradient gradientUnits="userSpaceOnUse" x1="75" y1="0" x2="75" y2="150" id="a"><stop offset="0" stop-color="#301abc"/><stop offset="1" stop-color="#190e63"/></linearGradient></defs><rect fill="url(#a)" width="150" height="150" rx="20"/><path d="M91.59 89.54V59.83c-.03-4.15.5-8.29 1.56-12.3a39.3 39.3 0 0 1 3.97-9.52 37.76 37.76 0 0 1 15.57-14.7 45.93 45.93 0 0 1 14.88-4.65 59.17 59.17 0 0 1 8.28-.56c8.85 0 16.62 1.74 23.3 5.21s11.89 8.38 15.58 14.7a40.63 40.63 0 0 1 5.23 16.2c.2 1.86.3 3.74.3 5.62v29.71c0 8.43-1.85 15.83-5.53 22.2s-8.88 11.33-15.57 14.87a45.37 45.37 0 0 1-14.57 4.66c-2.9.43-5.82.64-8.74.63-8.75 0-16.47-1.76-23.16-5.3s-11.88-8.48-15.57-14.85a41.02 41.02 0 0 1-5.1-15.34 52.49 52.49 0 0 1-.43-6.87zm58.95.95V59.5c0-4.85-1.34-8.72-4.03-11.62a13.36 13.36 0 0 0-8.65-4.24 18.37 18.37 0 0 0-2.01-.1c-1.71-.02-3.4.24-5.03.77-2.1.7-3.99 1.93-5.49 3.57-2.68 2.9-4.03 6.77-4.03 11.62v31c0 4.85 1.35 8.72 4.03 11.62a13.39 13.39 0 0 0 9.22 4.3 18.05 18.05 0 0 0 1.3.04c1.64.02 3.29-.21 4.87-.69a13.01 13.01 0 0 0 5.8-3.65c2.68-2.9 4.02-6.77 4.02-11.62z" fill="#a742ff"/><path d="M32.62 89.54V59.83a46.73 46.73 0 0 1 1.56-12.3A39.17 39.17 0 0 1 38.15 38a37.76 37.76 0 0 1 15.57-14.7 45.93 45.93 0 0 1 14.88-4.65 59.18 59.18 0 0 1 8.28-.56c8.85 0 16.62 1.74 23.31 5.21s11.88 8.38 15.57 14.7a40.66 40.66 0 0 1 5.23 16.2c.2 1.86.3 3.74.3 5.62v29.71c0 8.43-1.84 15.83-5.53 22.2s-8.88 11.33-15.57 14.87a45.36 45.36 0 0 1-14.57 4.66 59.13 59.13 0 0 1-8.74.63c-8.75 0-16.47-1.76-23.16-5.3s-11.88-8.48-15.56-14.85a41.02 41.02 0 0 1-5.1-15.34 52.6 52.6 0 0 1-.44-6.87zm58.96.95V59.5c0-4.85-1.35-8.72-4.03-11.62a13.37 13.37 0 0 0-8.66-4.24 18.5 18.5 0 0 0-2.01-.1c-1.7-.02-3.4.24-5.02.77a13.07 13.07 0 0 0-5.5 3.57c-2.68 2.9-4.02 6.77-4.02 11.62v31c0 4.85 1.34 8.72 4.03 11.62a13.39 13.39 0 0 0 9.22 4.3c.43.03.86.04 1.29.04a16.39 16.39 0 0 0 4.87-.69 13.01 13.01 0 0 0 5.8-3.65c2.68-2.9 4.03-6.77 4.03-11.62z" fill="#fd3333"/><path d="M-24.26 95.86v-2.21c0-.24.03-.48.08-.72a2.09 2.09 0 0 1 .56-1.02c.42-.42 1-.63 1.74-.63h24.5c.24 0 .48.02.72.08a2.09 2.09 0 0 1 1.01.55c.43.42.64 1 .64 1.74v.95c0 2.78 1.38 5.26 4.15 7.43l.51.4c2.7 1.96 6.2 3.08 10.46 3.33a24.33 24.33 0 0 0 4.9-.12c2.19-.3 3.9-.96 5.1-1.98l.32-.3a9.3 9.3 0 0 0 1.55-1.9 6.8 6.8 0 0 0 .98-3.54 5.97 5.97 0 0 0-.5-2.5 5.91 5.91 0 0 0-2.66-2.72 23.7 23.7 0 0 0-1.9-.92 94.27 94.27 0 0 0-9.64-3.35l-4.58-1.26c-4.6-1.38-9.1-3.08-13.46-5.1a74 74 0 0 1-12.7-7.48 2.12 2.12 0 0 0-.08-.06 25.68 25.68 0 0 1-10.3-18.19 37.92 37.92 0 0 1-.29-4.73c-.03-3.9.66-7.78 2.05-11.42.85-2.2 1.97-4.28 3.33-6.2A33.5 33.5 0 0 1-5.84 23.57 39.94 39.94 0 0 1-3 22.21a48.95 48.95 0 0 1 14.02-3.7 60.72 60.72 0 0 1 7.08-.41 57.29 57.29 0 0 1 13.82 1.61 48.9 48.9 0 0 1 8.55 2.97c6.69 3.06 11.96 7.38 15.8 12.96s5.77 11.96 5.77 19.13v1.42c0 .24-.02.48-.07.72a2.09 2.09 0 0 1-.56 1.02c-.42.42-1 .63-1.74.63h-24.5a3.1 3.1 0 0 1-.71-.08 2.08 2.08 0 0 1-1.03-.55c-.42-.42-.63-1-.63-1.74v-.16a10.41 10.41 0 0 0-2.08-6.2 15.55 15.55 0 0 0-2.19-2.41 14.35 14.35 0 0 0-6.31-3.28c-1.59-.4-3.33-.6-5.22-.6-2.43 0-4.49.36-6.18 1.07a9.3 9.3 0 0 0-1.8 1 6.52 6.52 0 0 0-2.93 5.68c0 1.9.71 3.5 2.13 4.82a13.19 13.19 0 0 0 1.74 1.34c1.24.82 2.78 1.6 4.64 2.38l.18.08a177.23 177.23 0 0 0 14.05 4.81c1.27.43 4.48 1.4 9.6 2.92l1.09.33a34.22 34.22 0 0 1 16.51 10.59 27.05 27.05 0 0 1 6.6 16.88c.03.56.04 1.13.04 1.69a34.96 34.96 0 0 1-1.26 9.57 28.59 28.59 0 0 1-4.11 8.68 32.77 32.77 0 0 1-11 9.8 41.2 41.2 0 0 1-4.02 1.98 49.92 49.92 0 0 1-11.84 3.32c-3.5.54-7.05.8-10.6.79-3.87.01-7.72-.3-11.54-.93a50.36 50.36 0 0 1-11.7-3.42 38.38 38.38 0 0 1-9.24-5.62 31.84 31.84 0 0 1-11.53-22.83c-.06-.87-.09-1.74-.09-2.6" fill="#1d73ff"/><path d="M32.62 89.54V65.9l5.82 1.74 1.08.33a34.22 34.22 0 0 1 16.52 10.59 27.05 27.05 0 0 1 6.6 16.88c.02.56.04 1.13.04 1.69a34.96 34.96 0 0 1-1.27 9.57 28.59 28.59 0 0 1-4.11 8.68 32.79 32.79 0 0 1-8.42 8.23 37.66 37.66 0 0 1-10.73-11.86 41.02 41.02 0 0 1-5.09-15.34 52.6 52.6 0 0 1-.44-6.87zm1.56-42.01A39.17 39.17 0 0 1 38.15 38a37.26 37.26 0 0 1 9.73-11 36 36 0 0 1 8.4 8.63 32.9 32.9 0 0 1 5.76 19.13v1.42c0 .24-.02.48-.07.72a2.09 2.09 0 0 1-.56 1.02c-.42.42-1 .63-1.74.63h-24.5a3.1 3.1 0 0 1-.71-.08 2.08 2.08 0 0 1-1.03-.55c-.42-.42-.63-1-.63-1.74v-.16a9.71 9.71 0 0 0-.01-.48 46.66 46.66 0 0 1 1.4-8.02zm81.61-9.48a40.63 40.63 0 0 1 5.23 16.18 50.4 50.4 0 0 1 .3 5.63v29.71c0 8.43-1.84 15.84-5.53 22.21a37.63 37.63 0 0 1-9.32 10.8 37.72 37.72 0 0 1-9.32-10.8 41.05 41.05 0 0 1-5.1-15.34 52.56 52.56 0 0 1-.43-6.87V59.86a46.78 46.78 0 0 1 1.56-12.3 39.25 39.25 0 0 1 3.97-9.51 37.26 37.26 0 0 1 9.32-10.7 37.22 37.22 0 0 1 9.32 10.7z" fill="#ff80ff"/></svg>