<?xml version="1.0" standalone="no"?>
<!DOCTYPE svg PUBLIC "-//W3C//DTD SVG 20010904//EN"
 "http://www.w3.org/TR/2001/REC-SVG-20010904/DTD/svg10.dtd">
<svg version="1.0" xmlns="http://www.w3.org/2000/svg"
 width="960.000000pt" height="960.000000pt" viewBox="0 0 960.000000 960.000000"
 preserveAspectRatio="xMidYMid meet">
<metadata>
Created by potrace 1.14, written by Peter Selinger 2001-2017
</metadata>
<g transform="translate(0.000000,960.000000) scale(0.100000,-0.100000)"
fill="#000000" stroke="none">
<path d="M1330 9430 c-125 -12 -202 -27 -325 -67 -213 -68 -398 -178 -559
-333 -121 -116 -204 -231 -281 -385 -73 -145 -114 -270 -142 -426 -17 -100
-18 -245 -18 -3424 0 -3090 1 -3327 17 -3415 38 -212 131 -441 245 -604 73
-104 245 -276 348 -348 165 -115 394 -208 602 -245 92 -17 300 -18 3578 -18
3334 0 3484 1 3585 18 213 38 438 129 605 245 103 72 275 244 348 348 116 166
205 388 244 605 17 100 18 244 18 3419 0 3175 -1 3319 -18 3419 -39 217 -128
439 -244 605 -74 105 -246 277 -348 348 -163 113 -389 206 -597 245 -87 17
-305 18 -3533 19 -1892 1 -3478 -2 -3525 -6z m6340 -2230 l0 -310 -2870 0
-2870 0 0 310 0 310 2870 0 2870 0 0 -310z m10 -1600 l0 -320 -2880 0 -2880 0
0 320 0 320 2880 0 2880 0 0 -320z m-2880 -1600 l0 -320 -1440 0 -1440 0 0
320 0 320 1440 0 1440 0 0 -320z m-5 -1600 l0 -315 -1437 -3 -1438 -2 0 313
c0 173 3 317 7 320 3 4 650 6 1437 5 l1431 -3 0 -315z"/>
</g>
</svg>
